# xmcd
#
# Track frame offsets:
#	150
#	22002
#	47380
#	67152
#	94846
#	112072
#	131145
#	154539
#	175334
#	193403
#	222327
#	245277
#
# Disc length: 3439 seconds
#
# Revision: 0
# Processed by: cddbd v1.5.2PL0 Copyright (c) Steve Scherf et al.
# Submitted via: audiograbber 1.83.01
#
DISCID=b10d6d0c
DTITLE=Junosmile - Happy Trails
DYEAR=1900
DGENRE=Country
TTITLE0=Best Thing About Us
TTITLE1=My Favorite Place
TTITLE2=Ho Chi Minh
TTITLE3=Love The Life You Live
TTITLE4=Lovaby
TTITLE5=Breck Girl
TTITLE6=Lucky
TTITLE7=Kailey
TTITLE8=Love It Here
TTITLE9=Lonesome Cowboy
TTITLE10=Rainbow
TTITLE11=Nice Guy
EXTD=JUNOsmile ia Joseph and Jessey Lynn Martin
EXTT0=
EXTT1=
EXTT2=
EXTT3=
EXTT4=
EXTT5=
EXTT6=
EXTT7=
EXTT8=
EXTT9=
EXTT10=
EXTT11=
PLAYORDER=
